<?xml version="1.0" encoding="UTF-8"?>
<svg width="145px" height="41px" viewBox="0 0 145 41" version="1.1" xmlns="http://www.w3.org/2000/svg" xmlns:xlink="http://www.w3.org/1999/xlink">
    <!-- Generator: Sketch 58 (84663) - https://sketch.com -->
    <title>csc_log</title>
    <desc>Created with Sketch.</desc>
    <defs>
        <linearGradient x1="50%" y1="0%" x2="50%" y2="100%" id="linearGradient-1">
            <stop stop-color="#A1001C" offset="0%"></stop>
            <stop stop-color="#C41F30" offset="100%"></stop>
        </linearGradient>
        <linearGradient x1="50%" y1="0%" x2="50%" y2="100%" id="linearGradient-2">
            <stop stop-color="#D5D1D3" offset="0%"></stop>
            <stop stop-color="#ABA5A8" offset="100%"></stop>
        </linearGradient>
        <linearGradient x1="50%" y1="0%" x2="50%" y2="100%" id="linearGradient-3">
            <stop stop-color="#8D8488" offset="0%"></stop>
            <stop stop-color="#ABA5A8" offset="100%"></stop>
        </linearGradient>
        <linearGradient x1="50%" y1="0%" x2="50%" y2="100%" id="linearGradient-4">
            <stop stop-color="#8D8488" offset="0%"></stop>
            <stop stop-color="#ABA5A8" offset="100%"></stop>
        </linearGradient>
        <linearGradient x1="50%" y1="0%" x2="50%" y2="100%" id="linearGradient-5">
            <stop stop-color="#D5D1D3" offset="0%"></stop>
            <stop stop-color="#ABA5A8" offset="100%"></stop>
        </linearGradient>
        <linearGradient x1="100%" y1="50%" x2="0%" y2="50%" id="linearGradient-6">
            <stop stop-color="#94001A" offset="0%"></stop>
            <stop stop-color="#C41F30" offset="100%"></stop>
        </linearGradient>
    </defs>
    <g id="TX-Mockups" stroke="none" stroke-width="1" fill="none" fill-rule="evenodd">
        <g id="TX---Libre-NMS-1.2" transform="translate(-35.000000, -24.000000)">
            <g id="csc_log" transform="translate(38.000000, 27.000000)">
                <g id="Group">
                    <path d="M18.1342035,6.18686869 L39.8782092,28.459596" id="Line-Copy-2" stroke="url(#linearGradient-1)" stroke-width="6" stroke-linecap="square"></path>
                    <path d="M14.6259789,2.54564564 C13.0745067,0.97153448 10.9437472,5.68434189e-14 8.59238936,5.68434189e-14 C3.84694375,5.68434189e-14 1.77635684e-14,3.95707923 1.77635684e-14,8.83838384 L1.77635684e-14,17.3232323" id="Oval-Copy-13" stroke="url(#linearGradient-2)" stroke-width="6"></path>
                    <path d="M58.1139904,19.868878 C56.5625181,18.2947668 54.4317587,17.3232323 52.0804008,17.3232323 C47.3349552,17.3232323 43.4880115,21.2803116 43.4880115,26.1616162 L43.4880115,34.7935937" id="Oval-Copy-17" stroke="url(#linearGradient-3)" stroke-width="6" transform="translate(50.801001, 26.058413) scale(-1, -1) translate(-50.801001, -26.058413) "></path>
                    <path d="M15.3040133,20.642495 C13.729422,18.6191122 11.3080282,17.3232323 8.59238936,17.3232323 C3.84694375,17.3232323 -2.84217094e-14,21.2803116 -2.84217094e-14,26.1616162 L-2.84217094e-14,34.6464646" id="Oval-Copy-15" stroke="url(#linearGradient-4)" stroke-width="6" transform="translate(7.652007, 25.984848) scale(1, -1) translate(-7.652007, -25.984848) "></path>
                    <path d="M58.0906052,3.3192627 C56.5160139,1.2958799 54.0946201,0 51.3789813,0 C46.6335357,0 42.7865919,3.95707923 42.7865919,8.83838384 L42.7865919,17.3232323" id="Oval-Copy-20" stroke="url(#linearGradient-5)" stroke-width="6" transform="translate(50.438599, 8.661616) scale(-1, 1) translate(-50.438599, -8.661616) "></path>
                    <path d="M36.1565595,34.1449132 C34.6040459,32.5958635 32.4597931,31.5692486 30.0935242,31.5692486 C27.5043211,31.5692486 25.1826016,32.7472696 23.6072824,34.6106836" id="Oval-Copy-19" stroke="url(#linearGradient-6)" stroke-width="6" transform="translate(29.881921, 33.089966) scale(1, -1) translate(-29.881921, -33.089966) "></path>
                    <path d="M34.2932828,2.57566458 C32.7807159,1.06137493 30.5965164,4.08562073e-14 28.2302476,4.08562073e-14 C25.6410444,4.08562073e-14 23.3193249,1.17802091 21.7440057,3.041435" id="Oval-Copy-21" stroke="url(#linearGradient-6)" stroke-width="6" transform="translate(28.018644, 1.520717) scale(-1, 1) translate(-28.018644, -1.520717) "></path>
                </g>
                <g id="LOGO" transform="translate(81.504950, 2.916667)">
                    <path d="M5.61328799,3.90833333 L7.59980874,3.90833333 L13.1584219,16.8583333 L10.5340275,16.8583333 L9.33118004,13.8951977 L3.73611701,13.8951977 L2.5697195,16.8583333 L0,16.8583333 L5.61328799,3.90833333 Z M8.52928176,11.919774 L6.542761,6.6519774 L4.51979033,11.919774 L8.52928176,11.919774 Z M15.3454172,3.90833333 L17.6417623,3.90833333 L17.6417623,14.8097458 L23.1274755,14.8097458 L23.1274755,16.8583333 L15.3454172,16.8583333 L15.3454172,3.90833333 Z M26.6084431,5.92033898 L22.6536265,5.92033898 L22.6536265,3.90833333 L32.8596047,3.90833333 L32.8596047,5.92033898 L28.9047882,5.92033898 L28.9047882,16.8583333 L26.6084431,16.8583333 L26.6084431,5.92033898 Z M38.2177433,3.90833333 L40.204264,3.90833333 L45.7628771,16.8583333 L43.1384827,16.8583333 L41.9356353,13.8951977 L36.3405723,13.8951977 L35.1741748,16.8583333 L32.6044553,16.8583333 L38.2177433,3.90833333 Z M41.133737,11.919774 L39.1472163,6.6519774 L37.1242456,11.919774 L41.133737,11.919774 Z M47.9498724,3.90833333 L50.9934409,3.90833333 L56.9894531,13.6025424 L57.025903,13.6025424 L57.025903,3.90833333 L59.3222481,3.90833333 L59.3222481,16.8583333 L56.4062543,16.8583333 L50.2826674,6.85317797 L50.2462175,6.85317797 L50.2462175,16.8583333 L47.9498724,16.8583333 L47.9498724,3.90833333 Z" id="ALTAN" fill="#ABA5A8" fill-rule="nonzero"></path>
                    <path d="M0.702038439,19.7853495 L2.44765902,19.7853495 C2.68419415,19.7853495 2.91362979,19.8100468 3.13597282,19.8594422 C3.35831585,19.9088376 3.55581972,19.989986 3.72849037,20.1028898 C3.90116102,20.2157936 4.039532,20.3639776 4.14360746,20.5474462 C4.24768292,20.7309149 4.29971987,20.954367 4.29971987,21.2178091 C4.29971987,21.5800421 4.19682863,21.8752341 3.99104306,22.1033938 C3.78525749,22.3315536 3.50496756,22.4856179 3.15016486,22.5655914 L4.49131237,24.7813172 L3.41271754,24.7813172 L2.24897049,22.6643817 L1.59613678,22.6643817 L1.59613678,24.7813172 L0.702038439,24.7813172 L0.702038439,19.7853495 Z M2.3270267,21.9375672 C2.45475567,21.9375672 2.58248273,21.9281587 2.7102117,21.9093414 C2.83794068,21.8905241 2.9526585,21.8552422 3.05436861,21.8034946 C3.15607871,21.7517471 3.24004743,21.6776551 3.30627727,21.5812164 C3.3725071,21.4847777 3.40562153,21.3612911 3.40562153,21.2107527 C3.40562153,21.0743273 3.37487242,20.9626012 3.31337328,20.8755712 C3.25187415,20.7885412 3.17381873,20.7191535 3.07920467,20.6674059 C2.98459062,20.6156583 2.87696874,20.5803764 2.75633582,20.5615591 C2.6357029,20.5427418 2.51861977,20.5333333 2.4050829,20.5333333 L1.59613678,20.5333333 L1.59613678,21.9375672 L2.3270267,21.9375672 Z M14.3902583,19.7853495 L17.718291,19.7853495 L17.718291,20.5615591 L15.2843567,20.5615591 L15.2843567,21.8317204 L17.5905627,21.8317204 L17.5905627,22.5797043 L15.2843567,22.5797043 L15.2843567,23.9909946 L17.8460194,23.9909946 L17.8460194,24.7813172 L14.3902583,24.7813172 L14.3902583,19.7853495 Z M27.9436539,19.7853495 L29.7247545,19.7853495 C30.051173,19.7853495 30.3799519,19.8276877 30.7111011,19.9123656 C31.0422503,19.9970434 31.3402801,20.136995 31.6051994,20.3322245 C31.8701188,20.5274539 32.0853625,20.7838358 32.2509371,21.1013777 C32.4165117,21.4189196 32.4992978,21.8129009 32.4992978,22.2833333 C32.4992978,22.7208355 32.4165117,23.0971758 32.2509371,23.4123656 C32.0853625,23.7275553 31.8701188,23.9862893 31.6051994,24.1885753 C31.3402801,24.3908612 31.0422503,24.5402213 30.7111011,24.6366599 C30.3799519,24.7330986 30.051173,24.7813172 29.7247545,24.7813172 L27.9436539,24.7813172 L27.9436539,19.7853495 Z M29.5828341,24.0051075 C29.8146386,24.0051075 30.0464395,23.9780581 30.278244,23.9239583 C30.5100484,23.8698586 30.7193789,23.7781256 30.9062416,23.6487567 C31.0931044,23.5193878 31.2456672,23.3441543 31.3639348,23.1230511 C31.4822024,22.9019478 31.5413353,22.6220447 31.5413353,22.2833333 C31.5413353,21.9258047 31.4822024,21.6341409 31.3639348,21.4083333 C31.2456672,21.1825258 31.0931044,21.0061162 30.9062416,20.8790995 C30.7193789,20.7520827 30.5100484,20.665054 30.278244,20.6180108 C30.0464395,20.5709675 29.8146386,20.5474462 29.5828341,20.5474462 L28.8377522,20.5474462 L28.8377522,24.0051075 L29.5828341,24.0051075 Z M42.5898362,19.7853495 L45.917869,19.7853495 L45.917869,20.5615591 L43.4839346,20.5615591 L43.4839346,21.8317204 L45.7901406,21.8317204 L45.7901406,22.5797043 L43.4839346,22.5797043 L43.4839346,23.9909946 L46.0455973,23.9909946 L46.0455973,24.7813172 L42.5898362,24.7813172 L42.5898362,19.7853495 Z M58.7048945,20.8297043 C58.6102804,20.7073919 58.4766401,20.6050743 58.3039694,20.5227487 C58.1312988,20.440423 57.9574481,20.3992608 57.7824121,20.3992608 C57.6783366,20.3992608 57.5742627,20.4121975 57.4701873,20.4380712 C57.3661118,20.463945 57.2714992,20.5039312 57.1863465,20.5580309 C57.1011939,20.6121306 57.031417,20.6826945 56.977014,20.7697245 C56.9226109,20.8567545 56.8954097,20.9614241 56.8954097,21.0837366 C56.8954097,21.1966403 56.9190629,21.2930776 56.9663699,21.3730511 C57.013677,21.4530246 57.0787231,21.5212363 57.1615104,21.5776882 C57.2442977,21.6341401 57.3448237,21.6835347 57.4630912,21.7258737 C57.5813588,21.7682126 57.7114512,21.8105509 57.8533723,21.8528898 C58.0142161,21.9046374 58.1809709,21.9634405 58.3536416,22.0293011 C58.5263122,22.0951616 58.6847884,22.1821903 58.8290748,22.2903898 C58.9733612,22.3985893 59.091627,22.5350126 59.1838757,22.699664 C59.2761244,22.8643153 59.3222481,23.0689504 59.3222481,23.3135753 C59.3222481,23.5817218 59.2725765,23.8157584 59.1732317,24.0156922 C59.073887,24.215626 58.9414293,24.381451 58.7758547,24.513172 C58.6102801,24.6448931 58.4163242,24.7436825 58.1939811,24.809543 C57.9716381,24.8754036 57.7374718,24.9083333 57.4914753,24.9083333 C57.1650568,24.9083333 56.8457392,24.8483541 56.5335128,24.7283938 C56.2212864,24.6084335 55.9658323,24.430848 55.7671428,24.1956317 L56.4057845,23.6028898 C56.5287827,23.7722455 56.6931722,23.9063167 56.8989578,24.0051075 C57.1047433,24.1038983 57.3069778,24.153293 57.5056673,24.153293 C57.6097428,24.153293 57.716182,24.1403563 57.8249882,24.1144825 C57.9337943,24.0886087 58.031955,24.0450944 58.119473,23.9839382 C58.206991,23.922782 58.2779504,23.8463378 58.3323535,23.7546035 C58.3867566,23.6628692 58.4139577,23.548791 58.4139577,23.4123656 C58.4139577,23.2806445 58.3832086,23.1712706 58.3217095,23.0842406 C58.2602103,22.9972106 58.1774243,22.9219425 58.0733488,22.8584341 C57.9692734,22.7949258 57.8462769,22.7396508 57.7043559,22.6926075 L57.2573067,22.544422 C57.1059242,22.4973788 56.954544,22.4409277 56.8031615,22.3750672 C56.651779,22.3092067 56.5157734,22.222178 56.3951404,22.1139785 C56.2745075,22.005779 56.1763469,21.8728839 56.1006557,21.715289 C56.0249644,21.5576941 55.9871194,21.3612915 55.9871194,21.1260753 C55.9871194,20.8720417 56.040339,20.6532939 56.1467798,20.4698253 C56.2532206,20.2863566 56.3927742,20.1346444 56.5654449,20.0146841 C56.7381155,19.8947239 56.9344367,19.805343 57.1544144,19.746539 C57.3743921,19.6877349 57.5979145,19.6583333 57.8249882,19.6583333 C58.0804461,19.6583333 58.3394482,19.7030237 58.6020022,19.7924059 C58.8645562,19.8817881 59.0928092,20.0158593 59.286768,20.1946237 L58.7048945,20.8297043 Z" id="REDES" fill="#ABA5A8" fill-rule="nonzero"></path>
                    <path d="M0.252013799,1.45833333 L39.0621388,1.45833333" id="Line" stroke="#C41F30" stroke-width="0.5" stroke-linecap="square"></path>
                    <path d="M0.252852828,27.4458333 L59.6732673,27.1833333" id="Line-Copy-2" stroke="#C41F30" stroke-width="0.5" stroke-linecap="square"></path>
                    <path d="M42.2079208,1.45833333 L59.4078626,1.45833333" id="Line-Copy" stroke="#C41F30" stroke-width="0.5" stroke-linecap="square"></path>
                </g>
            </g>
        </g>
    </g>
</svg>